# xmcd
#
# Track frame offsets: 
#        183
#        13173
#        27458
#        41475
#        54515
#        66725
#        79465
#        90568
#        103283
#        116155
#        129573
#        141988
#        156490
#        169163
#        181430
#        194895
#        206700
#        218120
#        231548
#        245438
#        258358
#        271488
#        284855
#        299423
#        311213
#
# Disc length: 4342 seconds
#
# Revision: 5
# Processed by: cddbd v1.5.2PL0 Copyright (c) Steve Scherf et al.
# Submitted via: ExactAudioCopy v0.99pb5
#
DISCID=aa10f419
DTITLE=Various Artist - Them Dirty Blues - Disc 1
DYEAR=1989
DGENRE=Blues
TTITLE0=The Mississippi Mud Mashers - Bring It On Home To Grandma
TTITLE1=Lee "Pork Chop" Green - (Good Mornin' Susie) I'm Gonna Beat Yo
TTITLE1=ur Bread
TTITLE2=Blind Boy Fuller - Worn Out Engine Blues
TTITLE3=The Memphis Jug Band - She Done Sold It Out
TTITLE4=Kokomo Arnold - Big Leg Mama
TTITLE5=Mary Dixon - Daddy, You've Got Everything
TTITLE6=Armed Forces Radio Orchestra - Take A Pro
TTITLE7=Bob Howe and Frankie Griggs - The Hottest Stuff In Town
TTITLE8=The Mississippi Sheiks - Ram Rod Blues
TTITLE9=Bob Clifford  - Ash Can Blues
TTITLE10=The Hokum Boys - Caught Us Doing It
TTITLE11=Whistlin' Alex Moore - Blue Bloomer Blues
TTITLE12=Speedy Holmes - Mister Mary Blues
TTITLE13=Blind Boy Fuller - I Want Some Of Your Pie
TTITLE14=Bud Jackson's Swanee Serenaders - Messin' Around
TTITLE15=Holmes And Howard - Somebody's Been Usin' That Thing
TTITLE16=Walter Roland - Big Mama
TTITLE17=The Mississippi Sheiks - Loose Like That
TTITLE18=Lonnie Johnson and Spencer Williams - Once Or Twice
TTITLE19=Blind Boy Fuller - Shake It, Baby
TTITLE20=Connie McLean's Rhythm Boys - I Can't Use That Thing
TTITLE21=Georgia White - If You Can't Get Five, Take Two
TTITLE22=Jimmy Rushing - Tricks Ain't Walkin'
TTITLE23=Bessie Jackson - Tired As I Can Be
TTITLE24=Ora Alexander - You've Got To Save That Thing
EXTD=YEAR: 1989
EXTT0=
EXTT1=
EXTT2=
EXTT3=
EXTT4=
EXTT5=
EXTT6=
EXTT7=
EXTT8=
EXTT9=
EXTT10=
EXTT11=
EXTT12=
EXTT13=
EXTT14=
EXTT15=
EXTT16=
EXTT17=
EXTT18=
EXTT19=
EXTT20=
EXTT21=
EXTT22=
EXTT23=
EXTT24=
PLAYORDER=
